<svg width="300" height="126" viewBox="0 0 300 126" fill="none" xmlns="http://www.w3.org/2000/svg">
<g clip-path="url(#clip0_6_181)">
<path d="M150.34 103.883L2 67.3828V62.8828L150.34 99.3828V103.883Z" stroke="#A2A3A8" stroke-linecap="round" stroke-linejoin="round"/>
<path d="M150.344 99.3438L298.674 62.8438V58.3438L150.344 94.8438V99.3438Z" stroke="#A2A3A8" stroke-linecap="round" stroke-linejoin="round"/>
<path d="M150.344 103.883L298.674 67.3828V62.8828L150.344 99.3828V103.883Z" stroke="#A2A3A8" stroke-linecap="round" stroke-linejoin="round"/>
<path d="M182.084 96.0703V112.53L150.344 120.34V103.88L182.084 96.0703Z" stroke="#A2A3A8" stroke-linecap="round" stroke-linejoin="round"/>
<path d="M242.797 81.0703V97.5303L211.047 105.34V88.8803L242.797 81.0703Z" stroke="#A2A3A8" stroke-linecap="round" stroke-linejoin="round"/>
<path d="M298.67 67.3203V83.7803L266.93 91.5903V75.1303L298.67 67.3203Z" stroke="#A2A3A8" stroke-linecap="round" stroke-linejoin="round"/>
<path d="M118.594 96.0703V112.53L150.344 120.34V103.88L118.594 96.0703Z" stroke="#A2A3A8" stroke-linecap="round" stroke-linejoin="round"/>
<path d="M57.8828 81.0703V97.5303L89.6228 105.34V88.8803L57.8828 81.0703Z" stroke="#A2A3A8" stroke-linecap="round" stroke-linejoin="round"/>
<path d="M2 67.3203V83.7803L33.75 91.5903V75.1303L2 67.3203Z" stroke="#A2A3A8" stroke-linecap="round" stroke-linejoin="round"/>
<path d="M118.594 112.438V116.908L150.344 124.717V120.247L118.594 112.438Z" stroke="#A2A3A8" stroke-linecap="round" stroke-linejoin="round"/>
<path d="M57.8828 97.4375V101.908L89.6228 109.717V105.247L57.8828 97.4375Z" stroke="#A2A3A8" stroke-linecap="round" stroke-linejoin="round"/>
<path d="M2 83.6875V88.1575L33.75 95.9675V91.4975L2 83.6875Z" stroke="#A2A3A8" stroke-linecap="round" stroke-linejoin="round"/>
<path d="M298.674 88.2412V83.7812L267 91.5689V96.031L298.674 88.2412Z" stroke="#A2A3A8" stroke-linecap="round" stroke-linejoin="round"/>
<path d="M150.344 120.251V124.721L182 116.936V112.468L150.344 120.251Z" stroke="#A2A3A8" stroke-linecap="round" stroke-linejoin="round"/>
<path d="M242.877 97.5L211 105.338V109.804L242.877 101.964V97.5Z" stroke="#A2A3A8" stroke-linecap="round" stroke-linejoin="round"/>
<path d="M33.75 75.1328V91.5928L57.88 86.5128V81.0728L33.75 75.1328Z" stroke="#A2A3A8" stroke-linecap="round" stroke-linejoin="round"/>
<path d="M89.6172 88.8828V105.343L118.587 99.2428V96.0728L89.6172 88.8828Z" stroke="#A2A3A8" stroke-linecap="round" stroke-linejoin="round"/>
<path d="M266.927 75.1328V91.5928L242.797 86.5128V81.0728L266.927 75.1328Z" stroke="#A2A3A8" stroke-linecap="round" stroke-linejoin="round"/>
<path d="M211.048 88.8828V105.343L182.078 99.2428V96.0728L211.048 88.8828Z" stroke="#A2A3A8" stroke-linecap="round" stroke-linejoin="round"/>
<path d="M33.75 91.5878L57.88 86.5078V90.4478L33.75 95.9678V91.5878Z" stroke="#A2A3A8" stroke-linecap="round" stroke-linejoin="round"/>
<path d="M89.6172 105.343L118.587 99.1328V103.073L89.6172 109.723V105.343Z" stroke="#A2A3A8" stroke-linecap="round" stroke-linejoin="round"/>
<path d="M2 58.1328V62.6328L31.67 69.9328V65.4328L2 58.1328Z" stroke="#A2A3A8" stroke-linecap="round" stroke-linejoin="round"/>
<path d="M31.6719 65.4297V69.9297L61.3419 77.2297V72.7297L31.6719 65.4297Z" stroke="#A2A3A8" stroke-linecap="round" stroke-linejoin="round"/>
<path d="M150.342 94.6281L120.672 87.3281V91.8281L150.342 99.1281V94.6281Z" stroke="#A2A3A8" stroke-linecap="round" stroke-linejoin="round"/>
<path d="M91 80.0312V84.5312L120.67 91.8313V87.3313L91 80.0312Z" stroke="#A2A3A8" stroke-linecap="round" stroke-linejoin="round"/>
<path d="M61.3438 72.7266V77.2266L91.0038 84.5266V80.0266L61.3438 72.7266Z" stroke="#A2A3A8" stroke-linecap="round" stroke-linejoin="round"/>
<path d="M31.6719 65.4272L179.862 39.3672" stroke="#A2A3A8" stroke-linecap="round" stroke-linejoin="round"/>
<path d="M61.3438 72.7331L211.054 44.2031" stroke="#A2A3A8" stroke-linecap="round" stroke-linejoin="round"/>
<path d="M91 80.0281L240.89 48.8281" stroke="#A2A3A8" stroke-linecap="round" stroke-linejoin="round"/>
<path d="M120.672 87.3313L269.592 53.2812" stroke="#A2A3A8" stroke-linecap="round" stroke-linejoin="round"/>
<path d="M2 57.7891L150.34 34.7891" stroke="#A2A3A8" stroke-linecap="round" stroke-linejoin="round"/>
<path d="M298.674 57.7891L150.344 34.7891" stroke="#A2A3A8" stroke-linecap="round" stroke-linejoin="round"/>
<path d="M243.5 90.5L267.5 95.9893L298.67 88.3234V83.7134V82.8634V67.3134V67.2534V64.7734V62.8134V58.2734L150.34 35.2734L2 58.2734V62.8134V64.7734V67.2534V67.3134V83.7134V83.7734V88.2334L33.75 96.0534L57.88 90.5334V97.4634V97.5234V101.983L89.62 109.803L118.59 103.153V111.523V112.463V116.993L150.34 124.803L182.096 116.993L182.5 103.5L211.5 109.762L243.06 102V90.5" stroke="#A2A3A8" stroke-width="2.13" stroke-linecap="round" stroke-linejoin="round"/>
<path d="M148.174 9.71094L100.344 17.3709V72.7309L148.174 62.2109V9.71094Z" fill="white" stroke="#A2A3A8" stroke-width="2.13" stroke-linecap="round" stroke-linejoin="round"/>
<path d="M52.5 9.71094L100.34 17.3709V72.7309L52.5 62.2109V9.71094Z" fill="white" stroke="#A2A3A8" stroke-width="2.13" stroke-linecap="round" stroke-linejoin="round"/>
<path d="M52.5 9.70969L100.34 17.3697L148.17 9.70969L100.34 3.17969L52.5 9.70969Z" fill="white" stroke="#A2A3A8" stroke-width="2.13" stroke-linecap="round" stroke-linejoin="round"/>
<path d="M69.0078 12.5137V23.9038L77.8578 25.8237V13.7738L126.598 6.77375L118.018 5.59375L69.0078 12.5137Z" fill="white" stroke="#A2A3A8" stroke-linecap="round" stroke-linejoin="round"/>
<path d="M77.8578 13.7678L69.0078 12.5078" stroke="#A2A3A8" stroke-linecap="round" stroke-linejoin="round"/>
<path d="M247.513 10.1484L200.312 17.6984V72.3284L247.513 61.9384V10.1484Z" fill="white" stroke="#A2A3A8" stroke-width="2.13" stroke-linecap="round" stroke-linejoin="round"/>
<path d="M153.117 10.1484L200.307 17.6984V72.3284L153.117 61.9384V10.1484Z" fill="white" stroke="#A2A3A8" stroke-width="2.13" stroke-linecap="round" stroke-linejoin="round"/>
<path d="M147.906 9.52L200.306 17.7L247.506 10.15L193.056 2L147.906 9.52Z" fill="white" stroke="#A2A3A8" stroke-width="2.13" stroke-linecap="round" stroke-linejoin="round"/>
<path d="M165.039 12.3831V23.6331L173.769 25.5131V13.6331L218.879 5.91312L210.969 4.70312L165.039 12.3831Z" fill="white" stroke="#A2A3A8" stroke-linecap="round" stroke-linejoin="round"/>
<path d="M200.344 17.6797L150.344 25.6797V83.5497L200.344 72.5497V17.6797Z" fill="white" stroke="#A2A3A8" stroke-width="2.13" stroke-linecap="round" stroke-linejoin="round"/>
<path d="M100.344 17.6797L150.344 25.6797V83.5497L100.344 72.5497V17.6797Z" fill="white" stroke="#A2A3A8" stroke-width="2.13" stroke-linecap="round" stroke-linejoin="round"/>
<path d="M100.344 17.6809L150.344 25.6809L200.344 17.6809L148.174 9.71094L100.344 17.6809Z" fill="white" stroke="#A2A3A8" stroke-width="2.13" stroke-linecap="round" stroke-linejoin="round"/>
<path d="M117.594 20.6028V32.5128L126.844 34.5128V21.9228L174.884 13.6628L166.504 12.3828L117.594 20.6028Z" fill="white" stroke="#A2A3A8" stroke-linecap="round" stroke-linejoin="round"/>
<path d="M126.844 21.9216L117.594 20.6016" stroke="#A2A3A8" stroke-linecap="round" stroke-linejoin="round"/>
</g>
<defs>
<clipPath id="clip0_6_181">
<rect width="300" height="126" fill="white"/>
</clipPath>
</defs>
</svg>
