<svg width="235" height="126" viewBox="0 0 235 126" fill="none" xmlns="http://www.w3.org/2000/svg">
<g clip-path="url(#clip0_6_163)">
<path d="M1 106.831L83.09 88.7812" stroke="#A2A3A8" stroke-linecap="round" stroke-linejoin="round"/>
<path d="M160.602 89.1406L233.472 104.981" stroke="#A2A3A8" stroke-linecap="round" stroke-linejoin="round"/>
<path d="M203.59 8.07031L121.5 21.2003V116.22L203.59 98.1603V8.07031Z" fill="white" stroke="#A2A3A8" stroke-width="2.83" stroke-linecap="round" stroke-linejoin="round"/>
<path d="M39.4219 8.07031L121.502 21.2003V116.22L39.4219 98.1603V8.07031Z" fill="white" stroke="#A2A3A8" stroke-width="2.83" stroke-linecap="round" stroke-linejoin="round"/>
<path d="M78.6869 1.53125L39.4219 8.06625L121.502 21.1963L203.592 8.06625L160.772 1.53125" stroke="#A2A3A8" stroke-width="2.83" stroke-linecap="round" stroke-linejoin="round"/>
<path d="M79.2031 125.294L161.283 107.234" stroke="#A2A3A8" stroke-linecap="round" stroke-linejoin="round"/>
<path d="M20.9531 104.781L91.2931 120.261" stroke="#A2A3A8" stroke-linecap="round" stroke-linejoin="round"/>
<path d="M17.5 104.019L21.92 107.079L21.21 104.839L22.8 103.109L17.5 104.019Z" fill="#77787B"/>
<path d="M94.7431 121.021L89.4531 121.931L91.0431 120.201L90.3231 117.961L94.7431 121.021Z" fill="#77787B"/>
<path d="M148.367 119.461L218.727 104.031" stroke="#A2A3A8" stroke-linecap="round" stroke-linejoin="round"/>
<path d="M144.922 120.222L150.222 121.142L148.632 119.402L149.342 117.172L144.922 120.222Z" fill="#77787B"/>
<path d="M222.173 103.279L217.753 106.329L218.473 104.089L216.883 102.359L222.173 103.279Z" fill="#77787B"/>
<path d="M90.8125 109.461L163.673 125.301" stroke="#A2A3A8" stroke-linecap="round" stroke-linejoin="round"/>
<path d="M169.727 13.4859L233.667 2.83594" stroke="#A2A3A8" stroke-linecap="round" stroke-linejoin="round"/>
<path d="M222.023 9.97656V97.5566" stroke="#A2A3A8" stroke-linecap="round" stroke-linejoin="round"/>
<path d="M222.022 6.44531L219.992 11.4153L222.022 10.2353L224.052 11.4153L222.022 6.44531Z" fill="#77787B"/>
<path d="M222.022 101.089L219.992 96.1094L222.022 97.2994L224.052 96.1094L222.022 101.089Z" fill="#77787B"/>
</g>
<defs>
<clipPath id="clip0_6_163">
<rect width="235" height="126" fill="white"/>
</clipPath>
</defs>
</svg>
